<svg version="1" xmlns="http://www.w3.org/2000/svg" width="682.667" height="682.667" viewBox="0 0 512.000000 512.000000"><path d="M170.5 34.1c-49.9 9-89.2 45.3-103 95.2-.8 3.1-1.8 7.4-2 9.5-.3 2-.9 6.4-1.3 9.7-1.7 13-.5 29.5 3.3 44.6 4 16 10.6 30.2 20 43.3l5.1 7.1-8.1 4.8c-15.4 9.1-29.5 21.1-41.6 35.1-8.9 10.3-7.9 9-14.3 18.8-13.6 20.9-22 42.9-26.2 68.5C.8 380.8.4 392 .5 433.6v45.9l255.3.3c203.8.2 255.2 0 255.3-1 0-.7.1-21.8.1-46.8.1-49.3-.2-54.3-3.6-71.5-5-25.3-21.2-58.4-37.3-76.2-1.5-1.7-3.7-4.2-4.9-5.5-8.8-9.8-25.4-23.2-38.5-30.9-3.8-2.3-6.9-4.6-6.9-5.1s1.5-2.8 3.3-5.1c10.6-13.4 19.7-35 23.1-55 1.6-9.2 2.2-28.7 1.1-35.2-.6-3.8-1.3-7.9-2.1-12.9-1.9-12.3-9.8-30.8-19.2-45C406 59.3 374.7 39.5 337 33.3c-2.5-.4-11.2-.7-19.5-.7-20.6 0-36.1 3.5-54.4 12.1l-7.5 3.5-6-3C241 41 228 36.5 218 34.5c-12.1-2.5-34.6-2.7-47.5-.4zm45.7 43.3c16.2 4.8 26.3 10.8 38.6 22.9 38 37.3 32.5 100.9-11.5 132.3-7.8 5.6-20.8 11.7-29.8 13.9-3.8 1-11.8 1.9-17.6 2.1-34.1 1.2-64.7-16.7-80.4-46.9-22.1-42.7-6-94.7 36.5-117.5 6.8-3.6 19.5-7.9 25.8-8.8 2.6-.3 4.9-.8 5.1-1 .2-.2 5.8-.2 12.5 0 9.3.3 14.1 1 20.8 3zm125.9 0c12.7 3.7 19 6.8 29.2 14.5 42.8 31.9 46.8 94.4 8.5 131.9-11 10.8-24.2 18.3-39.3 22.3-14.2 3.8-36.4 3.2-44.8-1.2l-2.7-1.4 3.8-5c13.2-17.5 21-37.1 24.7-62 .9-6.4.7-25.4-.4-33-3.1-20.9-10.9-40.1-23.2-57.4l-5.7-7.9 4.2-1.1c13.8-3.8 32.4-3.7 45.7.3zm-210 198.5c4 2.1 17.8 8 20.4 8.7.6.1 4.4 1.1 8.5 2.2 10.8 3 13 3.3 28 3.7 12.1.3 21.8-.4 29-2 1.4-.3 3.6-.8 5-1.1 7.6-1.5 24.4-7.9 30.5-11.6 1.7-1 3.6-1.8 4.4-1.8.7 0 5.6 2 10.9 4.5 41.3 19.6 70 60.5 73.8 105.4.8 9 1.1 52 .4 53.2-.4.5-58.6.8-150.6.7l-149.9-.3.1-25c0-26.3.3-31.3 2.9-43.5 7.5-36 31.4-68.6 63.5-86.4 7.9-4.4 16.8-8.5 18.5-8.6.6 0 2.7.9 4.6 1.9zm264.4 3.5c31.1 15.4 53.8 41 65.3 73.8 6.2 17.4 7.4 27 7.5 60l.2 24.3-42.1.3-42 .2v-23.2c-.1-29.6-.9-40.2-4-54.8-5-23.4-15.3-46.5-29.1-65.4-2.4-3.2-4.1-6.2-3.8-6.6.3-.4 2.9-1.4 5.7-2.1 5.9-1.4 15.8-5.3 23.3-9.2 2.8-1.4 5.7-2.6 6.5-2.7.9 0 6.5 2.4 12.5 5.4z"/></svg>