<svg width="219" height="178" viewBox="0 0 219 178" fill="none" 
  xmlns="http://www.w3.org/2000/svg">
  <path d="M81.5 92C81.5 69.6325 99.6325 51.5 122 51.5C144.368 51.5 162.5 69.6325 162.5 92V103.5H81.5V92Z" fill="#FF8A00" stroke="white" stroke-width="7" />
  <circle cx="122" cy="31" r="27.5" fill="#FF8A00" stroke="white" stroke-width="7" />
  <path d="M49.5 92C49.5 69.6325 67.6325 51.5 90 51.5C112.368 51.5 130.5 69.6325 130.5 92V103.5H49.5V92Z" fill="#FF8A00" stroke="white" stroke-width="7" />
  <circle cx="90" cy="31" r="27.5" fill="#FF8A00" stroke="white" stroke-width="7" />
  <path d="M20.5019 165.6V171H2.94187V141.86H9.70187V165.6H20.5019ZM31.8934 149.94C33.4668 149.94 34.9001 150.187 36.1934 150.68C37.4868 151.173 38.5934 151.88 39.5134 152.8C40.4468 153.72 41.1668 154.84 41.6734 156.16C42.1934 157.467 42.4534 158.94 42.4534 160.58C42.4534 162.233 42.1934 163.727 41.6734 165.06C41.1668 166.38 40.4468 167.507 39.5134 168.44C38.5934 169.36 37.4868 170.073 36.1934 170.58C34.9001 171.073 33.4668 171.32 31.8934 171.32C30.3068 171.32 28.8601 171.073 27.5534 170.58C26.2601 170.073 25.1401 169.36 24.1934 168.44C23.2601 167.507 22.5334 166.38 22.0134 165.06C21.5068 163.727 21.2534 162.233 21.2534 160.58C21.2534 158.94 21.5068 157.467 22.0134 156.16C22.5334 154.84 23.2601 153.72 24.1934 152.8C25.1401 151.88 26.2601 151.173 27.5534 150.68C28.8601 150.187 30.3068 149.94 31.8934 149.94ZM31.8934 166.72C33.3201 166.72 34.3668 166.22 35.0334 165.22C35.7134 164.207 36.0534 162.673 36.0534 160.62C36.0534 158.567 35.7134 157.04 35.0334 156.04C34.3668 155.04 33.3201 154.54 31.8934 154.54C30.4268 154.54 29.3534 155.04 28.6734 156.04C27.9934 157.04 27.6534 158.567 27.6534 160.62C27.6534 162.673 27.9934 164.207 28.6734 165.22C29.3534 166.22 30.4268 166.72 31.8934 166.72ZM60.5756 155.18C60.389 155.407 60.209 155.587 60.0356 155.72C59.8623 155.853 59.6156 155.92 59.2956 155.92C58.989 155.92 58.709 155.847 58.4556 155.7C58.2156 155.553 57.9423 155.393 57.6356 155.22C57.329 155.033 56.969 154.867 56.5556 154.72C56.1423 154.573 55.629 154.5 55.0156 154.5C54.2556 154.5 53.5956 154.64 53.0356 154.92C52.489 155.2 52.0356 155.6 51.6756 156.12C51.3156 156.64 51.049 157.28 50.8756 158.04C50.7023 158.787 50.6156 159.633 50.6156 160.58C50.6156 162.567 50.9956 164.093 51.7556 165.16C52.529 166.227 53.589 166.76 54.9356 166.76C55.6556 166.76 56.2223 166.673 56.6356 166.5C57.0623 166.313 57.4223 166.113 57.7156 165.9C58.009 165.673 58.2756 165.467 58.5156 165.28C58.769 165.093 59.0823 165 59.4556 165C59.949 165 60.3223 165.18 60.5756 165.54L62.3756 167.76C61.7356 168.493 61.0623 169.093 60.3556 169.56C59.649 170.013 58.9223 170.373 58.1756 170.64C57.4423 170.893 56.7023 171.067 55.9556 171.16C55.209 171.267 54.4823 171.32 53.7756 171.32C52.509 171.32 51.2956 171.08 50.1356 170.6C48.989 170.12 47.9756 169.427 47.0956 168.52C46.229 167.6 45.5356 166.473 45.0156 165.14C44.509 163.807 44.2556 162.287 44.2556 160.58C44.2556 159.087 44.4756 157.693 44.9156 156.4C45.369 155.093 46.029 153.967 46.8956 153.02C47.7756 152.06 48.8556 151.307 50.1356 150.76C51.429 150.213 52.9223 149.94 54.6156 149.94C56.2423 149.94 57.669 150.2 58.8956 150.72C60.1223 151.24 61.229 152 62.2156 153L60.5756 155.18ZM75.2487 162.56C74.0087 162.613 72.9887 162.72 72.1887 162.88C71.3887 163.04 70.7554 163.24 70.2887 163.48C69.8221 163.72 69.4954 163.993 69.3087 164.3C69.1354 164.607 69.0487 164.94 69.0487 165.3C69.0487 166.007 69.2421 166.507 69.6287 166.8C70.0154 167.08 70.5821 167.22 71.3287 167.22C72.1287 167.22 72.8287 167.08 73.4287 166.8C74.0287 166.52 74.6354 166.067 75.2487 165.44V162.56ZM64.0887 153.14C65.3421 152.033 66.7287 151.213 68.2487 150.68C69.7821 150.133 71.4221 149.86 73.1687 149.86C74.4221 149.86 75.5487 150.067 76.5487 150.48C77.5621 150.88 78.4154 151.447 79.1087 152.18C79.8154 152.9 80.3554 153.76 80.7287 154.76C81.1021 155.76 81.2887 156.853 81.2887 158.04V171H78.4487C77.8621 171 77.4154 170.92 77.1087 170.76C76.8154 170.6 76.5687 170.267 76.3687 169.76L75.9287 168.62C75.4087 169.06 74.9087 169.447 74.4287 169.78C73.9487 170.113 73.4487 170.4 72.9287 170.64C72.4221 170.867 71.8754 171.033 71.2887 171.14C70.7154 171.26 70.0754 171.32 69.3687 171.32C68.4221 171.32 67.5621 171.2 66.7887 170.96C66.0154 170.707 65.3554 170.34 64.8087 169.86C64.2754 169.38 63.8621 168.787 63.5687 168.08C63.2754 167.36 63.1287 166.533 63.1287 165.6C63.1287 164.853 63.3154 164.1 63.6887 163.34C64.0621 162.567 64.7087 161.867 65.6287 161.24C66.5487 160.6 67.7887 160.067 69.3487 159.64C70.9087 159.213 72.8754 158.973 75.2487 158.92V158.04C75.2487 156.827 74.9954 155.953 74.4887 155.42C73.9954 154.873 73.2887 154.6 72.3687 154.6C71.6354 154.6 71.0354 154.68 70.5687 154.84C70.1021 155 69.6821 155.18 69.3087 155.38C68.9487 155.58 68.5954 155.76 68.2487 155.92C67.9021 156.08 67.4887 156.16 67.0087 156.16C66.5821 156.16 66.2221 156.053 65.9287 155.84C65.6354 155.627 65.3954 155.373 65.2087 155.08L64.0887 153.14ZM91.2119 141.06V171H85.0119V141.06H91.2119ZM116.42 165.9C117.314 165.9 118.04 165.787 118.6 165.56C119.174 165.333 119.62 165.04 119.94 164.68C120.26 164.32 120.48 163.913 120.6 163.46C120.72 163.007 120.78 162.547 120.78 162.08C120.78 161.547 120.707 161.067 120.56 160.64C120.427 160.213 120.187 159.853 119.84 159.56C119.507 159.267 119.06 159.04 118.5 158.88C117.94 158.72 117.234 158.64 116.38 158.64H111.66V165.9H116.42ZM111.66 146.92V154.12H115.18C115.927 154.12 116.6 154.067 117.2 153.96C117.8 153.853 118.307 153.667 118.72 153.4C119.147 153.133 119.467 152.767 119.68 152.3C119.907 151.833 120.02 151.247 120.02 150.54C120.02 149.847 119.934 149.273 119.76 148.82C119.587 148.353 119.32 147.98 118.96 147.7C118.6 147.42 118.14 147.22 117.58 147.1C117.034 146.98 116.38 146.92 115.62 146.92H111.66ZM115.62 141.86C117.634 141.86 119.347 142.047 120.76 142.42C122.174 142.793 123.327 143.32 124.22 144C125.114 144.68 125.76 145.507 126.16 146.48C126.574 147.453 126.78 148.54 126.78 149.74C126.78 150.393 126.687 151.027 126.5 151.64C126.314 152.24 126.02 152.807 125.62 153.34C125.22 153.86 124.707 154.34 124.08 154.78C123.454 155.22 122.7 155.6 121.82 155.92C123.74 156.387 125.16 157.14 126.08 158.18C127 159.22 127.46 160.567 127.46 162.22C127.46 163.46 127.22 164.613 126.74 165.68C126.26 166.747 125.554 167.68 124.62 168.48C123.7 169.267 122.56 169.887 121.2 170.34C119.84 170.78 118.287 171 116.54 171H104.9V141.86H115.62ZM149.025 150.26V171H145.185C144.411 171 143.905 170.653 143.665 169.96L143.305 168.76C142.905 169.147 142.491 169.5 142.065 169.82C141.638 170.127 141.178 170.393 140.685 170.62C140.205 170.833 139.678 171 139.105 171.12C138.545 171.253 137.931 171.32 137.265 171.32C136.131 171.32 135.125 171.127 134.245 170.74C133.378 170.34 132.645 169.787 132.045 169.08C131.445 168.373 130.991 167.54 130.685 166.58C130.378 165.62 130.225 164.567 130.225 163.42V150.26H136.425V163.42C136.425 164.447 136.658 165.24 137.125 165.8C137.591 166.36 138.278 166.64 139.185 166.64C139.865 166.64 140.498 166.5 141.085 166.22C141.685 165.927 142.265 165.533 142.825 165.04V150.26H149.025ZM165.577 155.82C165.111 155.3 164.604 154.94 164.057 154.74C163.511 154.527 162.937 154.42 162.337 154.42C161.764 154.42 161.237 154.533 160.757 154.76C160.277 154.987 159.857 155.353 159.497 155.86C159.151 156.353 158.877 157 158.677 157.8C158.477 158.6 158.377 159.567 158.377 160.7C158.377 161.793 158.457 162.713 158.617 163.46C158.777 164.207 158.997 164.813 159.277 165.28C159.571 165.733 159.917 166.06 160.317 166.26C160.717 166.46 161.164 166.56 161.657 166.56C162.111 166.56 162.517 166.52 162.877 166.44C163.251 166.347 163.591 166.22 163.897 166.06C164.204 165.9 164.491 165.7 164.757 165.46C165.037 165.207 165.311 164.92 165.577 164.6V155.82ZM171.777 141.06V171H167.937C167.164 171 166.657 170.653 166.417 169.96L165.937 168.38C165.524 168.82 165.091 169.22 164.637 169.58C164.184 169.94 163.691 170.253 163.157 170.52C162.637 170.773 162.071 170.967 161.457 171.1C160.857 171.247 160.204 171.32 159.497 171.32C158.417 171.32 157.417 171.08 156.497 170.6C155.577 170.12 154.784 169.427 154.117 168.52C153.451 167.613 152.924 166.507 152.537 165.2C152.164 163.88 151.977 162.38 151.977 160.7C151.977 159.153 152.191 157.72 152.617 156.4C153.044 155.067 153.644 153.92 154.417 152.96C155.204 151.987 156.144 151.227 157.237 150.68C158.331 150.133 159.537 149.86 160.857 149.86C161.937 149.86 162.844 150.013 163.577 150.32C164.311 150.627 164.977 151.04 165.577 151.56V141.06H171.777ZM188.306 155.82C187.839 155.3 187.333 154.94 186.786 154.74C186.239 154.527 185.666 154.42 185.066 154.42C184.493 154.42 183.966 154.533 183.486 154.76C183.006 154.987 182.586 155.353 182.226 155.86C181.879 156.353 181.606 157 181.406 157.8C181.206 158.6 181.106 159.567 181.106 160.7C181.106 161.793 181.186 162.713 181.346 163.46C181.506 164.207 181.726 164.813 182.006 165.28C182.299 165.733 182.646 166.06 183.046 166.26C183.446 166.46 183.893 166.56 184.386 166.56C184.839 166.56 185.246 166.52 185.606 166.44C185.979 166.347 186.319 166.22 186.626 166.06C186.933 165.9 187.219 165.7 187.486 165.46C187.766 165.207 188.039 164.92 188.306 164.6V155.82ZM194.506 141.06V171H190.666C189.893 171 189.386 170.653 189.146 169.96L188.666 168.38C188.253 168.82 187.819 169.22 187.366 169.58C186.913 169.94 186.419 170.253 185.886 170.52C185.366 170.773 184.799 170.967 184.186 171.1C183.586 171.247 182.933 171.32 182.226 171.32C181.146 171.32 180.146 171.08 179.226 170.6C178.306 170.12 177.513 169.427 176.846 168.52C176.179 167.613 175.653 166.507 175.266 165.2C174.893 163.88 174.706 162.38 174.706 160.7C174.706 159.153 174.919 157.72 175.346 156.4C175.773 155.067 176.373 153.92 177.146 152.96C177.933 151.987 178.873 151.227 179.966 150.68C181.059 150.133 182.266 149.86 183.586 149.86C184.666 149.86 185.573 150.013 186.306 150.32C187.039 150.627 187.706 151.04 188.306 151.56V141.06H194.506ZM218.155 150.26L207.075 176.38C206.888 176.793 206.661 177.093 206.395 177.28C206.128 177.48 205.701 177.58 205.115 177.58H200.475L204.475 169.18L196.195 150.26H201.675C202.155 150.26 202.521 150.367 202.775 150.58C203.041 150.793 203.235 151.047 203.355 151.34L206.755 160.28C207.075 161.093 207.335 161.927 207.535 162.78C207.681 162.353 207.828 161.927 207.975 161.5C208.121 161.073 208.275 160.653 208.435 160.24L211.515 151.34C211.635 151.033 211.848 150.78 212.155 150.58C212.461 150.367 212.795 150.26 213.155 150.26H218.155Z" fill="white" />
</svg>